<?xml version="1.0" encoding="UTF-8" standalone="no"?>
<svg
   xmlns:dc="http://purl.org/dc/elements/1.1/"
   xmlns:cc="http://creativecommons.org/ns#"
   xmlns:rdf="http://www.w3.org/1999/02/22-rdf-syntax-ns#"
   xmlns:svg="http://www.w3.org/2000/svg"
   xmlns="http://www.w3.org/2000/svg"
   xmlns:sodipodi="http://sodipodi.sourceforge.net/DTD/sodipodi-0.dtd"
   xmlns:inkscape="http://www.inkscape.org/namespaces/inkscape"
   width="480mm"
   height="150mm"
   viewBox="0 0 480 150"
   version="1.1"
   id="svg8"
   inkscape:version="1.0.2 (e86c870879, 2021-01-15)"
   sodipodi:docname="logo.svg">
  <defs
     id="defs2" />
  <sodipodi:namedview
     id="base"
     pagecolor="#ffffff"
     bordercolor="#666666"
     borderopacity="1.0"
     inkscape:pageopacity="0.0"
     inkscape:pageshadow="2"
     inkscape:zoom="0.49497475"
     inkscape:cx="989.0028"
     inkscape:cy="239.30348"
     inkscape:document-units="mm"
     inkscape:current-layer="text2608"
     inkscape:document-rotation="0"
     showgrid="false"
     inkscape:window-width="1920"
     inkscape:window-height="1025"
     inkscape:window-x="0"
     inkscape:window-y="55"
     inkscape:window-maximized="0"
     fit-margin-top="0"
     fit-margin-left="0"
     fit-margin-right="0"
     fit-margin-bottom="0" />
  <metadata
     id="metadata5">
    <rdf:RDF>
      <cc:Work
         rdf:about="">
        <dc:format>image/svg+xml</dc:format>
        <dc:type
           rdf:resource="http://purl.org/dc/dcmitype/StillImage" />
        <dc:title></dc:title>
      </cc:Work>
    </rdf:RDF>
  </metadata>
  <g
     inkscape:label="Layer 1"
     inkscape:groupmode="layer"
     id="layer1"
     transform="translate(-34.214083,-86.552038)">
    <circle
       style="stroke-width:0.3;stroke-miterlimit:4;stroke-dasharray:none"
       id="path835-3-6"
       cx="122.15034"
       cy="72.760414"
       r="3.2934571e-07" />
    <circle
       style="stroke-width:0.3;stroke-miterlimit:4;stroke-dasharray:none"
       id="path835-3-8"
       cx="162.78279"
       cy="58.775299"
       r="3.2934571e-07" />
    <circle
       style="stroke-width:0.3;stroke-miterlimit:4;stroke-dasharray:none"
       id="path835-3-9"
       cx="144.81595"
       cy="40.423206"
       r="3.2934571e-07" />
    <circle
       style="fill:#d40000;stroke:#d40000;stroke-width:0.160982;stroke-miterlimit:4;stroke-dasharray:none"
       id="path1162-3-4-4-4-3-6-3"
       cx="93.294479"
       cy="171.66521"
       r="2.129622" />
    <circle
       style="fill:#d40000;stroke:#d40000;stroke-width:0.147589;stroke-miterlimit:4;stroke-dasharray:none"
       id="path1162-3-4-4-4-3-6-3-5-1"
       cx="-93.346336"
       cy="-210.03587"
       r="1.9524606"
       transform="scale(-1)" />
    <circle
       style="fill:#d40000;stroke:#d40000;stroke-width:0.135752;stroke-miterlimit:4;stroke-dasharray:none"
       id="path1162-3-4-4-4-3-6-3-5-6-9"
       cx="-82.002586"
       cy="-209.5399"
       r="1.7958708"
       transform="scale(-1)" />
    <circle
       style="fill:#d40000;stroke:#d40000;stroke-width:0.112078;stroke-miterlimit:4;stroke-dasharray:none"
       id="path1162-3-4-4-4-3-6-3-5-6-0-8-78"
       cx="-71.611511"
       cy="-208.22838"
       r="1.482691"
       transform="scale(-1)" />
    <circle
       style="fill:#d40000;stroke:#d40000;stroke-width:0.102609;stroke-miterlimit:4;stroke-dasharray:none"
       id="path1162-3-4-4-4-3-6-3-5-6-0-8-2-4"
       cx="-61.000763"
       cy="-205.62518"
       r="1.357419"
       transform="scale(-1)" />
    <circle
       style="fill:#d40000;stroke:#d40000;stroke-width:0.0836698;stroke-miterlimit:4;stroke-dasharray:none"
       id="path1162-3-4-4-4-3-6-3-5-6-0-8-2-5-0-4"
       cx="-49.694984"
       cy="-201.24068"
       r="1.1068752"
       transform="scale(-1)" />
    <circle
       style="fill:#d40000;stroke:#d40000;stroke-width:0.340897;stroke-miterlimit:4;stroke-dasharray:none"
       id="path1162-3-4-9-1"
       cx="40.497936"
       cy="189.67934"
       r="4.509788" />
    <circle
       style="fill:#d40000;stroke:#d40000;stroke-width:0.293552;stroke-miterlimit:4;stroke-dasharray:none"
       id="path1162-3-4-4-6-1"
       cx="49.843235"
       cy="181.04817"
       r="3.8834283" />
    <circle
       style="fill:#d40000;stroke:#d40000;stroke-width:0.246205;stroke-miterlimit:4;stroke-dasharray:none"
       id="path1162-3-4-4-4-2-7"
       cx="61.192856"
       cy="176.21263"
       r="3.2570691" />
    <circle
       style="fill:#d40000;stroke:#d40000;stroke-width:0.198858;stroke-miterlimit:4;stroke-dasharray:none"
       id="path1162-3-4-4-4-3-5-5"
       cx="71.440086"
       cy="173.83246"
       r="2.6307096" />
    <circle
       style="fill:#d40000;stroke:#d40000;stroke-width:0.175185;stroke-miterlimit:4;stroke-dasharray:none"
       id="path1162-3-4-4-4-3-6-1-5"
       cx="82.088188"
       cy="172.39185"
       r="2.3175297" />
    <path
       style="fill:#d40000;stroke:#d40000;stroke-width:0.662858;stroke-linecap:butt;stroke-linejoin:miter;stroke-miterlimit:4;stroke-dasharray:none;stroke-opacity:1"
       d="m 49.749956,181.06071 v 19.98085"
       id="path1900" />
    <path
       style="fill:#d40000;stroke:#d40000;stroke-width:0.662858;stroke-linecap:butt;stroke-linejoin:miter;stroke-miterlimit:4;stroke-dasharray:none;stroke-opacity:1"
       d="m 61.087068,176.39431 v 29.31366"
       id="path1900-4"
       sodipodi:nodetypes="cc" />
    <path
       style="fill:#d40000;stroke:#d40000;stroke-width:0.662858;stroke-linecap:butt;stroke-linejoin:miter;stroke-miterlimit:4;stroke-dasharray:none;stroke-opacity:1"
       d="m 71.521662,173.45419 v 34.71704"
       id="path1900-4-4"
       sodipodi:nodetypes="cc" />
    <path
       style="fill:#d40000;stroke:#d40000;stroke-width:0.662858;stroke-linecap:butt;stroke-linejoin:miter;stroke-miterlimit:4;stroke-dasharray:none;stroke-opacity:1"
       d="m 82.195626,172.34693 v 37.09723"
       id="path1900-4-4-0"
       sodipodi:nodetypes="cc" />
    <path
       style="fill:#d40000;stroke:#d40000;stroke-width:0.662858;stroke-linecap:butt;stroke-linejoin:miter;stroke-miterlimit:4;stroke-dasharray:none;stroke-opacity:1"
       d="m 93.407213,172.5965 v 37.09721"
       id="path1900-4-4-0-9"
       sodipodi:nodetypes="cc" />
    <circle
       style="fill:#d40000;stroke:#d40000;stroke-width:0.160982;stroke-miterlimit:4;stroke-dasharray:none"
       id="path1162-3-4-4-4-3-6-3-8"
       cx="-105.05393"
       cy="-210.04224"
       r="2.129622"
       transform="scale(-1)" />
    <circle
       style="fill:#d40000;stroke:#d40000;stroke-width:0.147589;stroke-miterlimit:4;stroke-dasharray:none"
       id="path1162-3-4-4-4-3-6-3-5-1-9"
       cx="105.00207"
       cy="171.67151"
       r="1.9524606" />
    <circle
       style="fill:#d40000;stroke:#d40000;stroke-width:0.135752;stroke-miterlimit:4;stroke-dasharray:none"
       id="path1162-3-4-4-4-3-6-3-5-6-9-7"
       cx="116.34583"
       cy="172.16753"
       r="1.7958708" />
    <circle
       style="fill:#d40000;stroke:#d40000;stroke-width:0.112078;stroke-miterlimit:4;stroke-dasharray:none"
       id="path1162-3-4-4-4-3-6-3-5-6-0-8-78-3"
       cx="126.73689"
       cy="173.47897"
       r="1.482691" />
    <circle
       style="fill:#d40000;stroke:#d40000;stroke-width:0.102609;stroke-miterlimit:4;stroke-dasharray:none"
       id="path1162-3-4-4-4-3-6-3-5-6-0-8-2-4-4"
       cx="137.34767"
       cy="176.0822"
       r="1.357419" />
    <circle
       style="fill:#d40000;stroke:#d40000;stroke-width:0.0836698;stroke-miterlimit:4;stroke-dasharray:none"
       id="path1162-3-4-4-4-3-6-3-5-6-0-8-2-5-0-4-5"
       cx="148.65343"
       cy="180.46667"
       r="1.1068752" />
    <circle
       style="fill:#d40000;stroke:#d40000;stroke-width:0.340897;stroke-miterlimit:4;stroke-dasharray:none"
       id="path1162-3-4-9-1-7"
       cx="-157.85048"
       cy="-192.02798"
       r="4.509788"
       transform="scale(-1)" />
    <circle
       style="fill:#d40000;stroke:#d40000;stroke-width:0.293552;stroke-miterlimit:4;stroke-dasharray:none"
       id="path1162-3-4-4-6-1-1"
       cx="-148.50522"
       cy="-200.65918"
       r="3.8834283"
       transform="scale(-1)" />
    <circle
       style="fill:#d40000;stroke:#d40000;stroke-width:0.246205;stroke-miterlimit:4;stroke-dasharray:none"
       id="path1162-3-4-4-4-2-7-7"
       cx="-137.15555"
       cy="-205.49472"
       r="3.2570691"
       transform="scale(-1)" />
    <circle
       style="fill:#d40000;stroke:#d40000;stroke-width:0.198858;stroke-miterlimit:4;stroke-dasharray:none"
       id="path1162-3-4-4-4-3-5-5-8"
       cx="-126.90832"
       cy="-207.87492"
       r="2.6307096"
       transform="scale(-1)" />
    <circle
       style="fill:#d40000;stroke:#d40000;stroke-width:0.175185;stroke-miterlimit:4;stroke-dasharray:none"
       id="path1162-3-4-4-4-3-6-1-5-4"
       cx="-116.26021"
       cy="-209.31555"
       r="2.3175297"
       transform="scale(-1)" />
    <path
       style="fill:#d40000;stroke:#d40000;stroke-width:0.662858;stroke-linecap:butt;stroke-linejoin:miter;stroke-miterlimit:4;stroke-dasharray:none;stroke-opacity:1"
       d="M 148.59846,200.64694 V 180.66608"
       id="path1900-0" />
    <path
       style="fill:#d40000;stroke:#d40000;stroke-width:0.662858;stroke-linecap:butt;stroke-linejoin:miter;stroke-miterlimit:4;stroke-dasharray:none;stroke-opacity:1"
       d="M 137.26136,205.31334 V 175.99968"
       id="path1900-4-5"
       sodipodi:nodetypes="cc" />
    <path
       style="fill:#d40000;stroke:#d40000;stroke-width:0.662858;stroke-linecap:butt;stroke-linejoin:miter;stroke-miterlimit:4;stroke-dasharray:none;stroke-opacity:1"
       d="M 126.82676,208.25346 V 173.53641"
       id="path1900-4-4-9"
       sodipodi:nodetypes="cc" />
    <path
       style="fill:#d40000;stroke:#d40000;stroke-width:0.662858;stroke-linecap:butt;stroke-linejoin:miter;stroke-miterlimit:4;stroke-dasharray:none;stroke-opacity:1"
       d="M 116.1528,209.36072 V 172.26349"
       id="path1900-4-4-0-8"
       sodipodi:nodetypes="cc" />
    <path
       style="fill:#d40000;stroke:#d40000;stroke-width:0.662858;stroke-linecap:butt;stroke-linejoin:miter;stroke-miterlimit:4;stroke-dasharray:none;stroke-opacity:1"
       d="M 104.94121,209.11119 V 172.01396"
       id="path1900-4-4-0-9-7"
       sodipodi:nodetypes="cc" />
    <circle
       style="fill:#d40000;stroke:#d40000;stroke-width:0.160982;stroke-miterlimit:4;stroke-dasharray:none"
       id="path1162-3-4-4-4-3-6-3-1"
       cx="210.00304"
       cy="171.93407"
       r="2.129622" />
    <circle
       style="fill:#d40000;stroke:#d40000;stroke-width:0.147589;stroke-miterlimit:4;stroke-dasharray:none"
       id="path1162-3-4-4-4-3-6-3-5-1-99"
       cx="-210.0549"
       cy="-210.30478"
       r="1.9524606"
       transform="scale(-1)" />
    <circle
       style="fill:#d40000;stroke:#d40000;stroke-width:0.135752;stroke-miterlimit:4;stroke-dasharray:none"
       id="path1162-3-4-4-4-3-6-3-5-6-9-0"
       cx="-198.71115"
       cy="-209.80879"
       r="1.7958708"
       transform="scale(-1)" />
    <circle
       style="fill:#d40000;stroke:#d40000;stroke-width:0.112078;stroke-miterlimit:4;stroke-dasharray:none"
       id="path1162-3-4-4-4-3-6-3-5-6-0-8-78-7"
       cx="-188.32008"
       cy="-208.49728"
       r="1.482691"
       transform="scale(-1)" />
    <circle
       style="fill:#d40000;stroke:#d40000;stroke-width:0.102609;stroke-miterlimit:4;stroke-dasharray:none"
       id="path1162-3-4-4-4-3-6-3-5-6-0-8-2-4-2"
       cx="-177.70932"
       cy="-205.89406"
       r="1.357419"
       transform="scale(-1)" />
    <circle
       style="fill:#d40000;stroke:#d40000;stroke-width:0.0836698;stroke-miterlimit:4;stroke-dasharray:none"
       id="path1162-3-4-4-4-3-6-3-5-6-0-8-2-5-0-4-3"
       cx="-166.4035"
       cy="-201.50958"
       r="1.1068752"
       transform="scale(-1)" />
    <circle
       style="fill:#d40000;stroke:#d40000;stroke-width:0.293552;stroke-miterlimit:4;stroke-dasharray:none"
       id="path1162-3-4-4-6-1-2"
       cx="166.55177"
       cy="181.31708"
       r="3.8834283" />
    <circle
       style="fill:#d40000;stroke:#d40000;stroke-width:0.246205;stroke-miterlimit:4;stroke-dasharray:none"
       id="path1162-3-4-4-4-2-7-0"
       cx="177.9014"
       cy="176.48155"
       r="3.2570691" />
    <circle
       style="fill:#d40000;stroke:#d40000;stroke-width:0.198858;stroke-miterlimit:4;stroke-dasharray:none"
       id="path1162-3-4-4-4-3-5-5-3"
       cx="188.14861"
       cy="174.10136"
       r="2.6307096" />
    <circle
       style="fill:#d40000;stroke:#d40000;stroke-width:0.175185;stroke-miterlimit:4;stroke-dasharray:none"
       id="path1162-3-4-4-4-3-6-1-5-41"
       cx="198.79674"
       cy="172.66072"
       r="2.3175297" />
    <path
       style="fill:#d40000;stroke:#d40000;stroke-width:0.662858;stroke-linecap:butt;stroke-linejoin:miter;stroke-miterlimit:4;stroke-dasharray:none;stroke-opacity:1"
       d="m 166.45851,181.32961 v 19.9809"
       id="path1900-1" />
    <path
       style="fill:#d40000;stroke:#d40000;stroke-width:0.662858;stroke-linecap:butt;stroke-linejoin:miter;stroke-miterlimit:4;stroke-dasharray:none;stroke-opacity:1"
       d="m 177.79561,176.66325 v 29.31361"
       id="path1900-4-1"
       sodipodi:nodetypes="cc" />
    <path
       style="fill:#d40000;stroke:#d40000;stroke-width:0.662858;stroke-linecap:butt;stroke-linejoin:miter;stroke-miterlimit:4;stroke-dasharray:none;stroke-opacity:1"
       d="m 188.23022,173.7231 v 34.71706"
       id="path1900-4-4-1"
       sodipodi:nodetypes="cc" />
    <path
       style="fill:#d40000;stroke:#d40000;stroke-width:0.662858;stroke-linecap:butt;stroke-linejoin:miter;stroke-miterlimit:4;stroke-dasharray:none;stroke-opacity:1"
       d="m 198.90415,172.61584 v 37.09722"
       id="path1900-4-4-0-7"
       sodipodi:nodetypes="cc" />
    <path
       style="fill:#d40000;stroke:#d40000;stroke-width:0.662858;stroke-linecap:butt;stroke-linejoin:miter;stroke-miterlimit:4;stroke-dasharray:none;stroke-opacity:1"
       d="m 210.11575,172.8654 v 37.09723"
       id="path1900-4-4-0-9-4"
       sodipodi:nodetypes="cc" />
    <circle
       style="fill:#d40000;stroke:#d40000;stroke-width:0.160982;stroke-miterlimit:4;stroke-dasharray:none"
       id="path1162-3-4-4-4-3-6-3-8-7"
       cx="-221.76248"
       cy="-210.31113"
       r="2.129622"
       transform="scale(-1)" />
    <circle
       style="fill:#d40000;stroke:#d40000;stroke-width:0.147589;stroke-miterlimit:4;stroke-dasharray:none"
       id="path1162-3-4-4-4-3-6-3-5-1-9-0"
       cx="221.71063"
       cy="171.94041"
       r="1.9524606" />
    <circle
       style="fill:#d40000;stroke:#d40000;stroke-width:0.135752;stroke-miterlimit:4;stroke-dasharray:none"
       id="path1162-3-4-4-4-3-6-3-5-6-9-7-6"
       cx="233.0544"
       cy="172.43639"
       r="1.7958708" />
    <circle
       style="fill:#d40000;stroke:#d40000;stroke-width:0.112078;stroke-miterlimit:4;stroke-dasharray:none"
       id="path1162-3-4-4-4-3-6-3-5-6-0-8-78-3-7"
       cx="243.44543"
       cy="173.74785"
       r="1.482691" />
    <circle
       style="fill:#d40000;stroke:#d40000;stroke-width:0.102609;stroke-miterlimit:4;stroke-dasharray:none"
       id="path1162-3-4-4-4-3-6-3-5-6-0-8-2-4-4-0"
       cx="254.0562"
       cy="176.35112"
       r="1.357419" />
    <circle
       style="fill:#d40000;stroke:#d40000;stroke-width:0.0836698;stroke-miterlimit:4;stroke-dasharray:none"
       id="path1162-3-4-4-4-3-6-3-5-6-0-8-2-5-0-4-5-6"
       cx="265.36197"
       cy="180.7356"
       r="1.1068752" />
    <circle
       style="fill:#d40000;stroke:#d40000;stroke-width:0.340897;stroke-miterlimit:4;stroke-dasharray:none"
       id="path1162-3-4-9-1-7-0"
       cx="-274.55902"
       cy="-192.29692"
       r="4.509788"
       transform="scale(-1)" />
    <circle
       style="fill:#d40000;stroke:#d40000;stroke-width:0.293552;stroke-miterlimit:4;stroke-dasharray:none"
       id="path1162-3-4-4-6-1-1-1"
       cx="-265.21375"
       cy="-200.92809"
       r="3.8834283"
       transform="scale(-1)" />
    <circle
       style="fill:#d40000;stroke:#d40000;stroke-width:0.246205;stroke-miterlimit:4;stroke-dasharray:none"
       id="path1162-3-4-4-4-2-7-7-4"
       cx="-253.86407"
       cy="-205.76364"
       r="3.2570691"
       transform="scale(-1)" />
    <circle
       style="fill:#d40000;stroke:#d40000;stroke-width:0.198858;stroke-miterlimit:4;stroke-dasharray:none"
       id="path1162-3-4-4-4-3-5-5-8-3"
       cx="-243.61687"
       cy="-208.14383"
       r="2.6307096"
       transform="scale(-1)" />
    <circle
       style="fill:#d40000;stroke:#d40000;stroke-width:0.175185;stroke-miterlimit:4;stroke-dasharray:none"
       id="path1162-3-4-4-4-3-6-1-5-4-9"
       cx="-232.96877"
       cy="-209.58449"
       r="2.3175297"
       transform="scale(-1)" />
    <path
       style="fill:#d40000;stroke:#d40000;stroke-width:0.662858;stroke-linecap:butt;stroke-linejoin:miter;stroke-miterlimit:4;stroke-dasharray:none;stroke-opacity:1"
       d="M 265.30699,200.91588 V 180.93503"
       id="path1900-0-8" />
    <path
       style="fill:#d40000;stroke:#d40000;stroke-width:0.662858;stroke-linecap:butt;stroke-linejoin:miter;stroke-miterlimit:4;stroke-dasharray:none;stroke-opacity:1"
       d="M 253.96988,205.58225 V 176.26862"
       id="path1900-4-5-6"
       sodipodi:nodetypes="cc" />
    <path
       style="fill:#d40000;stroke:#d40000;stroke-width:0.662858;stroke-linecap:butt;stroke-linejoin:miter;stroke-miterlimit:4;stroke-dasharray:none;stroke-opacity:1"
       d="M 243.5353,208.52237 V 173.80536"
       id="path1900-4-4-9-7"
       sodipodi:nodetypes="cc" />
    <path
       style="fill:#d40000;stroke:#d40000;stroke-width:0.662858;stroke-linecap:butt;stroke-linejoin:miter;stroke-miterlimit:4;stroke-dasharray:none;stroke-opacity:1"
       d="M 232.86134,209.62961 V 172.53243"
       id="path1900-4-4-0-8-0"
       sodipodi:nodetypes="cc" />
    <path
       style="fill:#d40000;stroke:#d40000;stroke-width:0.662858;stroke-linecap:butt;stroke-linejoin:miter;stroke-miterlimit:4;stroke-dasharray:none;stroke-opacity:1"
       d="M 221.64974,209.38009 V 172.28291"
       id="path1900-4-4-0-9-7-7"
       sodipodi:nodetypes="cc" />
    <circle
       style="stroke-width:0.160982;stroke-miterlimit:4;stroke-dasharray:none"
       id="path1162-3-4-4-4-3-6-3-80"
       cx="327.22601"
       cy="172.01552"
       r="2.129622" />
    <circle
       style="stroke-width:0.147589;stroke-miterlimit:4;stroke-dasharray:none"
       id="path1162-3-4-4-4-3-6-3-5-1-7"
       cx="-327.27786"
       cy="-210.38617"
       r="1.9524606"
       transform="scale(-1)" />
    <circle
       style="stroke-width:0.135752;stroke-miterlimit:4;stroke-dasharray:none"
       id="path1162-3-4-4-4-3-6-3-5-6-9-05"
       cx="-315.93411"
       cy="-209.89021"
       r="1.7958708"
       transform="scale(-1)" />
    <circle
       style="stroke-width:0.112078;stroke-miterlimit:4;stroke-dasharray:none"
       id="path1162-3-4-4-4-3-6-3-5-6-0-8-78-1"
       cx="-305.54303"
       cy="-208.5787"
       r="1.482691"
       transform="scale(-1)" />
    <circle
       style="stroke-width:0.102609;stroke-miterlimit:4;stroke-dasharray:none"
       id="path1162-3-4-4-4-3-6-3-5-6-0-8-2-4-28"
       cx="-294.93225"
       cy="-205.97549"
       r="1.357419"
       transform="scale(-1)" />
    <circle
       style="stroke-width:0.0836698;stroke-miterlimit:4;stroke-dasharray:none"
       id="path1162-3-4-4-4-3-6-3-5-6-0-8-2-5-0-4-53"
       cx="-283.6265"
       cy="-201.59099"
       r="1.1068752"
       transform="scale(-1)" />
    <circle
       style="stroke-width:0.293552;stroke-miterlimit:4;stroke-dasharray:none"
       id="path1162-3-4-4-6-1-0"
       cx="283.77475"
       cy="181.39848"
       r="3.8834283" />
    <circle
       style="stroke-width:0.246205;stroke-miterlimit:4;stroke-dasharray:none"
       id="path1162-3-4-4-4-2-7-76"
       cx="295.12445"
       cy="176.56294"
       r="3.2570691" />
    <circle
       style="stroke-width:0.198858;stroke-miterlimit:4;stroke-dasharray:none"
       id="path1162-3-4-4-4-3-5-5-9"
       cx="305.37161"
       cy="174.18277"
       r="2.6307096" />
    <circle
       style="stroke-width:0.175185;stroke-miterlimit:4;stroke-dasharray:none"
       id="path1162-3-4-4-4-3-6-1-5-1"
       cx="316.01971"
       cy="172.74216"
       r="2.3175297" />
    <path
       style="fill:none;stroke:#000000;stroke-width:0.662858;stroke-linecap:butt;stroke-linejoin:miter;stroke-miterlimit:4;stroke-dasharray:none;stroke-opacity:1"
       d="m 283.68151,181.41102 v 19.98089"
       id="path1900-6" />
    <path
       style="fill:none;stroke:#000000;stroke-width:0.662858;stroke-linecap:butt;stroke-linejoin:miter;stroke-miterlimit:4;stroke-dasharray:none;stroke-opacity:1"
       d="m 295.01864,193.25232 v 12.80596"
       id="path1900-4-9"
       sodipodi:nodetypes="cc" />
    <path
       style="fill:none;stroke:#000000;stroke-width:0.662858;stroke-linecap:butt;stroke-linejoin:miter;stroke-miterlimit:4;stroke-dasharray:none;stroke-opacity:1"
       d="m 305.45322,173.8045 v 34.71708"
       id="path1900-4-4-03"
       sodipodi:nodetypes="cc" />
    <path
       style="fill:none;stroke:#000000;stroke-width:0.662858;stroke-linecap:butt;stroke-linejoin:miter;stroke-miterlimit:4;stroke-dasharray:none;stroke-opacity:1"
       d="m 326.93224,172.39712 -10.80505,37.39735"
       id="path1900-4-4-0-96"
       sodipodi:nodetypes="cc" />
    <circle
       style="stroke-width:0.160982;stroke-miterlimit:4;stroke-dasharray:none"
       id="path1162-3-4-4-4-3-6-3-8-0"
       cx="-338.98541"
       cy="-210.39256"
       r="2.129622"
       transform="scale(-1)" />
    <circle
       style="stroke-width:0.147589;stroke-miterlimit:4;stroke-dasharray:none"
       id="path1162-3-4-4-4-3-6-3-5-1-9-06"
       cx="338.93356"
       cy="172.02182"
       r="1.9524606" />
    <circle
       style="stroke-width:0.135752;stroke-miterlimit:4;stroke-dasharray:none"
       id="path1162-3-4-4-4-3-6-3-5-6-9-7-2"
       cx="350.27737"
       cy="172.51782"
       r="1.7958708" />
    <circle
       style="stroke-width:0.112078;stroke-miterlimit:4;stroke-dasharray:none"
       id="path1162-3-4-4-4-3-6-3-5-6-0-8-78-3-1"
       cx="360.6684"
       cy="173.82932"
       r="1.482691" />
    <circle
       style="stroke-width:0.102609;stroke-miterlimit:4;stroke-dasharray:none"
       id="path1162-3-4-4-4-3-6-3-5-6-0-8-2-4-4-4"
       cx="371.27914"
       cy="176.4325"
       r="1.357419" />
    <circle
       style="stroke-width:0.0836698;stroke-miterlimit:4;stroke-dasharray:none"
       id="path1162-3-4-4-4-3-6-3-5-6-0-8-2-5-0-4-5-9"
       cx="382.58496"
       cy="180.81705"
       r="1.1068752" />
    <circle
       style="stroke-width:0.340897;stroke-miterlimit:4;stroke-dasharray:none"
       id="path1162-3-4-9-1-7-3"
       cx="-391.78198"
       cy="-192.37831"
       r="4.509788"
       transform="scale(-1)" />
    <circle
       style="stroke-width:0.293552;stroke-miterlimit:4;stroke-dasharray:none"
       id="path1162-3-4-4-6-1-1-4"
       cx="-382.43674"
       cy="-201.00946"
       r="3.8834283"
       transform="scale(-1)" />
    <circle
       style="stroke-width:0.246205;stroke-miterlimit:4;stroke-dasharray:none"
       id="path1162-3-4-4-4-2-7-7-7"
       cx="-371.0871"
       cy="-205.84502"
       r="3.2570691"
       transform="scale(-1)" />
    <circle
       style="stroke-width:0.198858;stroke-miterlimit:4;stroke-dasharray:none"
       id="path1162-3-4-4-4-3-5-5-8-5"
       cx="-360.83984"
       cy="-208.22523"
       r="2.6307096"
       transform="scale(-1)" />
    <circle
       style="stroke-width:0.175185;stroke-miterlimit:4;stroke-dasharray:none"
       id="path1162-3-4-4-4-3-6-1-5-4-1"
       cx="-350.19171"
       cy="-209.66588"
       r="2.3175297"
       transform="scale(-1)" />
    <path
       style="fill:none;stroke:#000000;stroke-width:0.662858;stroke-linecap:butt;stroke-linejoin:miter;stroke-miterlimit:4;stroke-dasharray:none;stroke-opacity:1"
       d="M 382.53001,200.99728 371.12472,176.51434"
       id="path1900-0-9"
       sodipodi:nodetypes="cc" />
    <path
       style="fill:none;stroke:#000000;stroke-width:0.662858;stroke-linecap:butt;stroke-linejoin:miter;stroke-miterlimit:4;stroke-dasharray:none;stroke-opacity:1"
       d="M 371.19291,205.66365 V 191.35699"
       id="path1900-4-5-0"
       sodipodi:nodetypes="cc" />
    <path
       style="fill:none;stroke:#000000;stroke-width:0.662858;stroke-linecap:butt;stroke-linejoin:miter;stroke-miterlimit:4;stroke-dasharray:none;stroke-opacity:1"
       d="m 360.75833,208.60377 v -34.717"
       id="path1900-4-4-9-4"
       sodipodi:nodetypes="cc" />
    <path
       style="fill:none;stroke:#000000;stroke-width:0.662858;stroke-linecap:butt;stroke-linejoin:miter;stroke-miterlimit:4;stroke-dasharray:none;stroke-opacity:1"
       d="m 350.38447,188.70128 -0.30015,-16.08745"
       id="path1900-4-4-0-8-1"
       sodipodi:nodetypes="cc" />
    <path
       style="fill:none;stroke:#000000;stroke-width:0.662858;stroke-linecap:butt;stroke-linejoin:miter;stroke-miterlimit:4;stroke-dasharray:none;stroke-opacity:1"
       d="M 338.87275,209.4615 V 172.36431"
       id="path1900-4-4-0-9-7-9"
       sodipodi:nodetypes="cc" />
    <circle
       style="stroke-width:0.160982;stroke-miterlimit:4;stroke-dasharray:none"
       id="path1162-3-4-4-4-3-6-3-1-0"
       cx="443.93454"
       cy="172.28438"
       r="2.129622" />
    <circle
       style="stroke-width:0.147589;stroke-miterlimit:4;stroke-dasharray:none"
       id="path1162-3-4-4-4-3-6-3-5-1-99-5"
       cx="-443.98645"
       cy="-210.65517"
       r="1.9524606"
       transform="scale(-1)" />
    <circle
       style="stroke-width:0.135752;stroke-miterlimit:4;stroke-dasharray:none"
       id="path1162-3-4-4-4-3-6-3-5-6-9-0-1"
       cx="-432.64264"
       cy="-210.15913"
       r="1.7958708"
       transform="scale(-1)" />
    <circle
       style="stroke-width:0.112078;stroke-miterlimit:4;stroke-dasharray:none"
       id="path1162-3-4-4-4-3-6-3-5-6-0-8-78-7-9"
       cx="-422.25162"
       cy="-208.84763"
       r="1.482691"
       transform="scale(-1)" />
    <circle
       style="stroke-width:0.102609;stroke-miterlimit:4;stroke-dasharray:none"
       id="path1162-3-4-4-4-3-6-3-5-6-0-8-2-4-2-3"
       cx="-411.64081"
       cy="-206.24438"
       r="1.357419"
       transform="scale(-1)" />
    <circle
       style="stroke-width:0.0836698;stroke-miterlimit:4;stroke-dasharray:none"
       id="path1162-3-4-4-4-3-6-3-5-6-0-8-2-5-0-4-3-0"
       cx="-400.33508"
       cy="-201.85991"
       r="1.1068752"
       transform="scale(-1)" />
    <circle
       style="stroke-width:0.293552;stroke-miterlimit:4;stroke-dasharray:none"
       id="path1162-3-4-4-6-1-2-2"
       cx="400.48334"
       cy="181.66742"
       r="3.8834283" />
    <circle
       style="stroke-width:0.246205;stroke-miterlimit:4;stroke-dasharray:none"
       id="path1162-3-4-4-4-2-7-0-9"
       cx="411.83292"
       cy="176.83186"
       r="3.2570691" />
    <circle
       style="stroke-width:0.198858;stroke-miterlimit:4;stroke-dasharray:none"
       id="path1162-3-4-4-4-3-5-5-3-1"
       cx="422.08014"
       cy="174.45166"
       r="2.6307096" />
    <circle
       style="stroke-width:0.175185;stroke-miterlimit:4;stroke-dasharray:none"
       id="path1162-3-4-4-4-3-6-1-5-41-2"
       cx="432.72821"
       cy="173.01102"
       r="2.3175297" />
    <path
       style="fill:none;stroke:#000000;stroke-width:0.662858;stroke-linecap:butt;stroke-linejoin:miter;stroke-miterlimit:4;stroke-dasharray:none;stroke-opacity:1"
       d="m 400.39006,181.67995 v 19.98087"
       id="path1900-1-2" />
    <path
       style="fill:none;stroke:#000000;stroke-width:0.662858;stroke-linecap:butt;stroke-linejoin:miter;stroke-miterlimit:4;stroke-dasharray:none;stroke-opacity:1"
       d="m 411.72719,177.01356 v 29.31362"
       id="path1900-4-1-0"
       sodipodi:nodetypes="cc" />
    <path
       style="fill:none;stroke:#000000;stroke-width:0.662858;stroke-linecap:butt;stroke-linejoin:miter;stroke-miterlimit:4;stroke-dasharray:none;stroke-opacity:1"
       d="M 432.83571,194.87638 V 210.0634"
       id="path1900-4-4-0-7-8"
       sodipodi:nodetypes="cc" />
    <path
       style="fill:none;stroke:#000000;stroke-width:0.662858;stroke-linecap:butt;stroke-linejoin:miter;stroke-miterlimit:4;stroke-dasharray:none;stroke-opacity:1"
       d="m 422.7374,175.31672 21.30991,34.99622"
       id="path1900-4-4-0-9-4-3"
       sodipodi:nodetypes="cc" />
    <circle
       style="stroke-width:0.160982;stroke-miterlimit:4;stroke-dasharray:none"
       id="path1162-3-4-4-4-3-6-3-8-7-1"
       cx="-455.69397"
       cy="-210.66147"
       r="2.129622"
       transform="scale(-1)" />
    <circle
       style="stroke-width:0.147589;stroke-miterlimit:4;stroke-dasharray:none"
       id="path1162-3-4-4-4-3-6-3-5-1-9-0-4"
       cx="455.64212"
       cy="172.29073"
       r="1.9524606" />
    <circle
       style="stroke-width:0.135752;stroke-miterlimit:4;stroke-dasharray:none"
       id="path1162-3-4-4-4-3-6-3-5-6-9-7-6-5"
       cx="466.9859"
       cy="172.78671"
       r="1.7958708" />
    <circle
       style="stroke-width:0.112078;stroke-miterlimit:4;stroke-dasharray:none"
       id="path1162-3-4-4-4-3-6-3-5-6-0-8-78-3-7-4"
       cx="477.37695"
       cy="174.09818"
       r="1.482691" />
    <circle
       style="stroke-width:0.102609;stroke-miterlimit:4;stroke-dasharray:none"
       id="path1162-3-4-4-4-3-6-3-5-6-0-8-2-4-4-0-1"
       cx="487.9877"
       cy="176.70146"
       r="1.357419" />
    <circle
       style="stroke-width:0.0836698;stroke-miterlimit:4;stroke-dasharray:none"
       id="path1162-3-4-4-4-3-6-3-5-6-0-8-2-5-0-4-5-6-6"
       cx="499.29349"
       cy="181.08591"
       r="1.1068752" />
    <circle
       style="stroke-width:0.340897;stroke-miterlimit:4;stroke-dasharray:none"
       id="path1162-3-4-9-1-7-0-7"
       cx="-508.49057"
       cy="-192.64722"
       r="4.509788"
       transform="scale(-1)" />
    <circle
       style="stroke-width:0.293552;stroke-miterlimit:4;stroke-dasharray:none"
       id="path1162-3-4-4-6-1-1-1-7"
       cx="-499.14529"
       cy="-201.27838"
       r="3.8834283"
       transform="scale(-1)" />
    <circle
       style="stroke-width:0.246205;stroke-miterlimit:4;stroke-dasharray:none"
       id="path1162-3-4-4-4-2-7-7-4-5"
       cx="-487.79565"
       cy="-206.11392"
       r="3.2570691"
       transform="scale(-1)" />
    <circle
       style="stroke-width:0.198858;stroke-miterlimit:4;stroke-dasharray:none"
       id="path1162-3-4-4-4-3-5-5-8-3-4"
       cx="-477.5484"
       cy="-208.49413"
       r="2.6307096"
       transform="scale(-1)" />
    <circle
       style="stroke-width:0.175185;stroke-miterlimit:4;stroke-dasharray:none"
       id="path1162-3-4-4-4-3-6-1-5-4-9-8"
       cx="-466.90027"
       cy="-209.93475"
       r="2.3175297"
       transform="scale(-1)" />
    <path
       style="fill:none;stroke:#000000;stroke-width:0.662858;stroke-linecap:butt;stroke-linejoin:miter;stroke-miterlimit:4;stroke-dasharray:none;stroke-opacity:1"
       d="M 499.23856,201.26619 V 181.28534"
       id="path1900-0-8-4" />
    <path
       style="fill:none;stroke:#000000;stroke-width:0.662858;stroke-linecap:butt;stroke-linejoin:miter;stroke-miterlimit:4;stroke-dasharray:none;stroke-opacity:1"
       d="M 477.46685,208.87272 V 174.15567"
       id="path1900-4-4-9-7-4"
       sodipodi:nodetypes="cc" />
    <path
       style="fill:none;stroke:#000000;stroke-width:0.662858;stroke-linecap:butt;stroke-linejoin:miter;stroke-miterlimit:4;stroke-dasharray:none;stroke-opacity:1"
       d="M 466.7929,189.57046 V 172.88274"
       id="path1900-4-4-0-8-0-7"
       sodipodi:nodetypes="cc" />
    <path
       style="fill:none;stroke:#000000;stroke-width:0.662858;stroke-linecap:butt;stroke-linejoin:miter;stroke-miterlimit:4;stroke-dasharray:none;stroke-opacity:1"
       d="M 455.5813,209.73043 V 172.63322"
       id="path1900-4-4-0-9-7-7-6"
       sodipodi:nodetypes="cc" />
    <g
       aria-label="negentropy"
       id="text2608"
       style="font-style:normal;font-weight:normal;font-size:21.8326px;line-height:1.25;font-family:sans-serif;fill:#000000;fill-opacity:1;stroke:none;stroke-width:0.545816">
      <path
         d="m 69.698448,145.32293 v -37.16966 h 4.99294 l 0.901505,5.47836 h 0.346731 q 1.594969,-3.18993 4.715559,-4.6462 3.189932,-1.52563 7.420065,-1.52563 5.617062,0 9.015035,3.18994 3.467317,3.12058 3.467317,9.84719 v 24.826 h -6.241173 v -23.71646 q 0,-4.71556 -1.941701,-6.86529 -1.872353,-2.21909 -6.102486,-2.21909 -5.686406,0 -8.044182,3.60602 -2.288434,3.60601 -2.288434,10.12456 v 19.07026 z"
         style="font-style:normal;font-variant:normal;font-weight:normal;font-stretch:normal;font-family:'Noto Sans Mono';-inkscape-font-specification:'Noto Sans Mono';fill:#d40000;stroke-width:1.73366"
         id="path2610" />
      <path
         d="m 129.12823,146.01641 q -8.94569,0 -14.07733,-4.92361 -5.13163,-4.99292 -5.13163,-14.216 0,-6.10248 2.21908,-10.40196 2.21909,-4.36883 6.17183,-6.65726 3.95275,-2.35778 9.22308,-2.35778 7.28137,0 11.44216,4.71556 4.23013,4.71555 4.23013,12.89844 v 2.8432 h -26.97576 q 0.1387,4.85424 1.80301,7.69744 1.73366,2.84321 4.64621,4.09145 2.9819,1.17889 6.86529,1.17889 3.05125,0 6.03314,-0.83215 2.9819,-0.83216 5.9638,-2.2191 v 5.54772 q -3.18994,1.38691 -6.37988,2.01105 -3.18993,0.62411 -6.03313,0.62411 z m 7.83614,-23.09236 q -0.20805,-4.85424 -2.63516,-7.6281 -2.35778,-2.77386 -6.79595,-2.77386 -4.64621,0 -7.55876,2.8432 -2.8432,2.77386 -3.60602,7.55876 z"
         style="font-style:normal;font-variant:normal;font-weight:normal;font-stretch:normal;font-family:'Noto Sans Mono';-inkscape-font-specification:'Noto Sans Mono';fill:#d40000;stroke-width:1.73366"
         id="path2612" />
      <path
         d="m 166.50584,162.31281 q -3.81405,0 -7.21202,-0.7628 -3.32864,-0.69345 -6.17183,-1.87235 v -5.54773 q 2.77385,1.59497 6.37986,2.35779 3.67536,0.83215 6.79595,0.83215 6.31052,0 8.807,-2.98189 2.49647,-2.91255 2.49647,-8.04419 v -1.31758 q 0,-0.83215 0,-1.59496 0.0694,-0.76282 0.20804,-2.35778 h -0.27739 q -1.9417,2.8432 -4.57685,3.95274 -2.56582,1.0402 -6.24118,1.0402 -7.35072,0 -11.44217,-4.99294 -4.09143,-5.06229 -4.09143,-14.07732 0,-9.08439 4.0221,-14.28537 4.09143,-5.20098 11.16476,-5.20098 3.74471,0 6.31053,1.24824 2.56582,1.17889 4.57685,4.02209 h 0.34674 l 0.83216,-4.57686 h 4.99293 v 38.14052 q 0,7.97484 -4.09143,11.99694 -4.09144,4.02208 -12.82909,4.02208 z m 1.38693,-21.35869 q 4.64621,0 7.28137,-2.98189 2.63517,-3.05124 2.63517,-9.70851 v -1.45627 q 0,-7.62811 -2.70451,-10.95673 -2.70452,-3.32863 -7.42007,-3.32863 -5.27032,0 -7.69746,3.74471 -2.42712,3.67536 -2.42712,10.47131 0,6.93464 2.49647,10.61 2.56582,3.60601 7.83615,3.60601 z"
         style="font-style:normal;font-variant:normal;font-weight:normal;font-stretch:normal;font-family:'Noto Sans Mono';-inkscape-font-specification:'Noto Sans Mono';fill:#d40000;stroke-width:1.73366"
         id="path2614" />
      <path
         d="m 212.34372,146.01641 q -8.94568,0 -14.07732,-4.92361 -5.13164,-4.99292 -5.13164,-14.216 0,-6.10248 2.21909,-10.40196 2.21908,-4.36883 6.17183,-6.65726 3.95274,-2.35778 9.22308,-2.35778 7.28137,0 11.44215,4.71556 4.23013,4.71555 4.23013,12.89844 v 2.8432 h -26.97575 q 0.13876,4.85424 1.803,7.69744 1.73366,2.84321 4.64622,4.09145 2.98189,1.17889 6.86528,1.17889 3.05124,0 6.03315,-0.83215 2.98189,-0.83216 5.96379,-2.2191 v 5.54772 q -3.18994,1.38691 -6.37988,2.01105 -3.18992,0.62411 -6.03313,0.62411 z m 7.83614,-23.09236 q -0.20805,-4.85424 -2.63516,-7.6281 -2.35777,-2.77386 -6.79594,-2.77386 -4.64622,0 -7.55877,2.8432 -2.84321,2.77386 -3.60601,7.55876 z"
         style="font-style:normal;font-variant:normal;font-weight:normal;font-stretch:normal;font-family:'Noto Sans Mono';-inkscape-font-specification:'Noto Sans Mono';fill:#d40000;stroke-width:1.73366"
         id="path2616" />
      <path
         d="m 236.12943,145.32293 v -37.16966 h 4.99295 l 0.90149,5.47836 h 0.34674 q 1.59497,-3.18993 4.71556,-4.6462 3.18994,-1.52563 7.42005,-1.52563 5.61705,0 9.01505,3.18994 3.46732,3.12058 3.46732,9.84719 v 24.826 h -6.24118 v -23.71646 q 0,-4.71556 -1.94171,-6.86529 -1.87235,-2.21909 -6.10247,-2.21909 -5.68642,0 -8.04419,3.60602 -2.28843,3.60601 -2.28843,10.12456 v 19.07026 z"
         style="font-style:normal;font-variant:normal;font-weight:normal;font-stretch:normal;font-family:'Noto Sans Mono';-inkscape-font-specification:'Noto Sans Mono';fill:#d40000;stroke-width:1.73366"
         id="path2618" />
      <path
         d="m 300.06673,146.01641 q -3.95275,0 -7.07332,-1.0402 -3.12059,-1.0402 -4.99295,-3.67536 -1.80302,-2.63517 -1.80302,-7.28137 v -20.66523 h -10.12457 v -4.29948 l 10.12457,-1.10954 1.24825,-9.708542 h 4.99295 v 9.916582 h 14.49339 v 5.20098 h -14.49339 v 19.48634 q 0,4.23013 1.87236,6.17183 1.87235,1.9417 6.17182,1.9417 1.80298,0 3.88338,-0.34672 2.08041,-0.34674 3.60604,-0.69347 v 4.99295 q -1.66431,0.41605 -3.67538,0.76281 -2.01106,0.34672 -4.23013,0.34672 z"
         style="font-style:normal;font-variant:normal;font-weight:normal;font-stretch:normal;font-family:'Noto Sans Mono';-inkscape-font-specification:'Noto Sans Mono';fill:#d40000;stroke-width:1.73366"
         id="path2620" />
      <path
         d="m 318.09669,145.32293 v -4.16076 l 11.30348,-1.04021 v -26.76771 l -10.19395,-0.90151 v -4.29947 h 15.18688 l 0.83214,6.79595 h 0.27729 q 1.9417,-3.67536 4.2301,-5.54771 2.35779,-1.94171 6.17186,-1.94171 2.35776,0 4.16077,0.41608 1.87236,0.41608 3.39799,1.10955 l -1.66431,5.47836 q -1.10958,-0.62412 -2.63517,-1.0402 -1.52563,-0.48542 -3.25928,-0.48542 -2.98192,0 -5.27034,1.87235 -2.28843,1.87236 -3.60602,4.99294 -1.31758,3.12059 -1.31758,6.8653 v 13.4532 l 10.81805,1.04021 v 4.16076 z"
         style="font-style:normal;font-variant:normal;font-weight:normal;font-stretch:normal;font-family:'Noto Sans Mono';-inkscape-font-specification:'Noto Sans Mono';fill:#d40000;stroke-width:1.73366"
         id="path2622" />
      <path
         d="m 376.27824,146.01641 q -4.85426,0 -8.73767,-2.0804 -3.81404,-2.14974 -6.10248,-6.4492 -2.21908,-4.36883 -2.21908,-10.8874 0,-6.44921 2.14973,-10.67934 2.21908,-4.23014 6.03316,-6.31053 3.81405,-2.14974 8.66828,-2.14974 4.85424,0 8.73767,2.14974 3.88338,2.08039 6.10248,6.37987 2.28842,4.23014 2.28842,10.81804 0,6.44923 -2.21909,10.74869 -2.21907,4.23013 -6.03314,6.37987 -3.81405,2.0804 -8.66828,2.0804 z m -0.0692,-5.06229 q 5.40901,0 8.04418,-3.81405 2.63516,-3.88339 2.63516,-10.47131 0,-6.58791 -2.7045,-10.33262 -2.63517,-3.81405 -8.04422,-3.81405 -5.40901,0 -8.11352,3.81405 -2.63516,3.74471 -2.63516,10.33262 0,6.58792 2.7045,10.47131 2.7045,3.81405 8.11356,3.81405 z"
         style="font-style:normal;font-variant:normal;font-weight:normal;font-stretch:normal;font-family:'Noto Sans Mono';-inkscape-font-specification:'Noto Sans Mono';fill:#d40000;stroke-width:1.73366"
         id="path2624" />
      <path
         d="m 402.56041,161.96609 v -53.81282 h 5.13164 l 0.7628,5.06229 h 0.2773 q 1.59496,-2.70451 4.23013,-4.23013 2.7045,-1.52563 6.8653,-1.52563 6.79593,0 10.8874,4.85425 4.09143,4.85425 4.09143,14.35471 0,9.50046 -4.09143,14.42404 -4.09147,4.92361 -10.8874,4.92361 -4.09146,0 -6.79597,-1.6643 -2.7045,-1.66434 -4.29946,-3.81406 h -0.41607 q 0.41607,2.70452 0.41607,5.54771 v 15.88033 z m 15.94968,-21.01197 q 5.20098,0 7.55876,-3.53666 2.35778,-3.60601 2.35778,-10.88738 0,-7.14269 -2.35778,-10.54067 -2.28842,-3.46732 -7.62809,-3.46732 -5.06229,0 -7.42007,3.32863 -2.28845,3.25928 -2.28845,9.43111 v 1.38693 q 0,6.58792 2.0804,10.47131 2.14973,3.81405 7.69745,3.81405 z"
         style="font-style:normal;font-variant:normal;font-weight:normal;font-stretch:normal;font-family:'Noto Sans Mono';-inkscape-font-specification:'Noto Sans Mono';fill:#d40000;stroke-width:1.73366"
         id="path2626" />
      <path
         d="m 448.05156,162.31281 q -1.38693,0 -2.70452,-0.20803 -1.31758,-0.13877 -2.28844,-0.34672 v -4.78492 q 0.83219,0.13876 1.94172,0.27729 1.17887,0.13876 2.28842,0.13876 3.18994,0 4.92361,-1.59496 1.73364,-1.52564 3.12056,-5.0623 l 2.01107,-5.06229 -15.60297,-37.51642 h 6.1025 l 8.87636,21.84412 q 0.90149,2.14973 1.73365,4.7849 0.90152,2.63517 1.59496,5.06229 h 0.20805 q 0.76281,-2.56582 1.59496,-5.13162 0.83216,-2.63517 1.52563,-4.78492 l 7.28137,-21.77477 h 6.37987 l -15.60295,42.02395 q -1.31759,3.606 -2.91256,6.3105 -1.52559,2.77387 -4.02209,4.29947 -2.42712,1.52563 -6.4492,1.52563 z"
         style="font-style:normal;font-variant:normal;font-weight:normal;font-stretch:normal;font-family:'Noto Sans Mono';-inkscape-font-specification:'Noto Sans Mono';fill:#d40000;stroke-width:1.73366"
         id="path2628" />
    </g>
  </g>
</svg>
